<svg xmlns="http://www.w3.org/2000/svg" viewBox="0 0 120 120" width="120" height="120">
  <defs>
    <linearGradient id="gold" x1="0%" y1="0%" x2="100%" y2="100%">
      <stop offset="0%" stop-color="#d4a843"/>
      <stop offset="50%" stop-color="#f0d078"/>
      <stop offset="100%" stop-color="#c49530"/>
    </linearGradient>
    <radialGradient id="orb" cx="50%" cy="50%" r="50%">
      <stop offset="0%" stop-color="#8b6fd4" stop-opacity="0.6"/>
      <stop offset="70%" stop-color="#2a1a5e" stop-opacity="0.2"/>
      <stop offset="100%" stop-color="#1a1040" stop-opacity="0"/>
    </radialGradient>
    <linearGradient id="moonG" x1="0%" y1="0%" x2="100%" y2="100%">
      <stop offset="0%" stop-color="#f5e07a"/>
      <stop offset="40%" stop-color="#f0d058"/>
      <stop offset="100%" stop-color="#d4a843"/>
    </linearGradient>
    <filter id="starglow" x="-100%" y="-100%" width="300%" height="300%">
      <feGaussianBlur stdDeviation="1.5" result="blur"/>
      <feMerge><feMergeNode in="blur"/><feMergeNode in="SourceGraphic"/></feMerge>
    </filter>
    <clipPath id="mc"><circle cx="60" cy="58" r="38"/></clipPath>
  </defs>

  <circle cx="60" cy="60" r="55" fill="url(#orb)" opacity="0.4"/>
  <circle cx="60" cy="60" r="52" fill="none" stroke="url(#gold)" stroke-width="0.8" opacity="0.35"/>

  <g clip-path="url(#mc)">
    <circle cx="60" cy="58" r="38" fill="url(#moonG)" opacity="0.95"/>
    <circle cx="80" cy="46" r="32" fill="#12102a"/>
  </g>

  <g filter="url(#starglow)" opacity="0.9">
    <polygon points="88,22 89.5,27 95,27 90.5,30.5 92,36 88,32.5 84,36 85.5,30.5 81,27 86.5,27" fill="#f0d078" opacity="0.85"/>
    <circle cx="30" cy="28" r="1.5" fill="#e8dff5" opacity="0.6"/>
    <circle cx="100" cy="55" r="1.2" fill="#f0d078" opacity="0.5"/>
    <circle cx="25" cy="78" r="1" fill="#d4c8ed" opacity="0.4"/>
    <circle cx="100" cy="80" r="1.3" fill="#e8dff5" opacity="0.4"/>
    <circle cx="45" cy="22" r="0.8" fill="#f0d078" opacity="0.5"/>
    <circle cx="108" cy="42" r="0.9" fill="#d4c8ed" opacity="0.35"/>
  </g>

  <path d="M 22 92 Q 60 108 98 92" fill="none" stroke="url(#gold)" stroke-width="0.6" opacity="0.3"/>
</svg>
